<?xml version="1.0" encoding="utf-8"?>
<!-- Generator: Adobe Illustrator 18.0.0, SVG Export Plug-In . SVG Version: 6.00 Build 0)  -->
<!DOCTYPE svg PUBLIC "-//W3C//DTD SVG 1.1//EN" "http://www.w3.org/Graphics/SVG/1.1/DTD/svg11.dtd">
<svg version="1.1" id="Layer_1" xmlns:sketch="http://www.bohemiancoding.com/sketch/ns"
	 xmlns="http://www.w3.org/2000/svg" xmlns:xlink="http://www.w3.org/1999/xlink" x="0px" y="0px" width="40px" height="40px"
	 viewBox="0 0 40 40" enable-background="new 0 0 40 40" xml:space="preserve">
<title>arrow leftincircle</title>
<desc>Created with Sketch.</desc>
<g id="Page-1" sketch:type="MSPage">
	<g id="arrow-leftincircle" sketch:type="MSLayerGroup">
		<path id="Shape" sketch:type="MSShapeGroup" d="M22.5,32.3c-0.2,0-0.5-0.1-0.6-0.3l-6.7-11.7c-0.1-0.2-0.1-0.5,0-0.7L21.9,8
			c0.2-0.3,0.6-0.4,0.9-0.2c0.3,0.2,0.4,0.6,0.2,0.9L16.6,20l6.5,11.3c0.2,0.3,0.1,0.7-0.2,0.9C22.7,32.3,22.6,32.3,22.5,32.3
			L22.5,32.3z"/>
		<path id="Shape_1_" sketch:type="MSShapeGroup" d="M20,1.3c10.3,0,18.7,8.4,18.7,18.7c0,10.3-8.4,18.7-18.7,18.7
			C9.7,38.7,1.3,30.3,1.3,20C1.3,9.7,9.7,1.3,20,1.3L20,1.3z M20,0C9,0,0,9,0,20s9,20,20,20c11,0,20-9,20-20S31,0,20,0L20,0L20,0z"
			/>
	</g>
</g>
</svg>
