<?xml version="1.0" encoding="utf-8"?>
<!-- Generator: Adobe Illustrator 18.0.0, SVG Export Plug-In . SVG Version: 6.00 Build 0)  -->
<!DOCTYPE svg PUBLIC "-//W3C//DTD SVG 1.1//EN" "http://www.w3.org/Graphics/SVG/1.1/DTD/svg11.dtd">
<svg version="1.1" id="Layer_1" xmlns:sketch="http://www.bohemiancoding.com/sketch/ns"
	 xmlns="http://www.w3.org/2000/svg" xmlns:xlink="http://www.w3.org/1999/xlink" x="0px" y="0px" width="40px" height="30px"
	 viewBox="0 0 40 30" enable-background="new 0 0 40 30" xml:space="preserve">
<title>calendar</title>
<desc>Created with Sketch.</desc>
<g id="Page-1" sketch:type="MSPage">
	<g id="calendar" sketch:type="MSLayerGroup">
		<path id="Shape" sketch:type="MSShapeGroup" d="M10,8C9.6,8,9.3,7.7,9.3,7.3V0.7C9.3,0.3,9.6,0,10,0s0.7,0.3,0.7,0.7v6.7
			C10.7,7.7,10.4,8,10,8L10,8z"/>
		<path id="Shape_1_" sketch:type="MSShapeGroup" d="M30,8c-0.4,0-0.7-0.3-0.7-0.7V0.7C29.3,0.3,29.6,0,30,0s0.7,0.3,0.7,0.7v6.7
			C30.7,7.7,30.4,8,30,8L30,8z"/>
		<path id="Shape_2_" sketch:type="MSShapeGroup" d="M5.3,12.7H8v2.7H5.3V12.7L5.3,12.7z"/>
		<path id="Shape_3_" sketch:type="MSShapeGroup" d="M12,12.7h2.7v2.7H12V12.7L12,12.7z"/>
		<path id="Shape_4_" sketch:type="MSShapeGroup" d="M18.7,12.7h2.7v2.7h-2.7V12.7L18.7,12.7z"/>
		<path id="Shape_5_" sketch:type="MSShapeGroup" d="M25.3,12.7H28v2.7h-2.7V12.7L25.3,12.7z"/>
		<path id="Shape_6_" sketch:type="MSShapeGroup" d="M32,12.7h2.7v2.7H32V12.7L32,12.7z"/>
		<path id="Shape_7_" sketch:type="MSShapeGroup" d="M5.3,18H8v2.7H5.3V18L5.3,18z"/>
		<path id="Shape_8_" sketch:type="MSShapeGroup" d="M12,18h2.7v2.7H12V18L12,18z"/>
		<path id="Shape_9_" sketch:type="MSShapeGroup" d="M18.7,18h2.7v2.7h-2.7V18L18.7,18z"/>
		<path id="Shape_10_" sketch:type="MSShapeGroup" d="M25.3,18H28v2.7h-2.7V18L25.3,18z"/>
		<path id="Shape_11_" sketch:type="MSShapeGroup" d="M32,18h2.7v2.7H32V18L32,18z"/>
		<path id="Shape_12_" sketch:type="MSShapeGroup" d="M36,30H4c-2.2,0-4-1.8-4-4V7.3c0-2.2,1.8-4,4-4h32c2.2,0,4,1.8,4,4V26
			C40,28.2,38.2,30,36,30L36,30z M4,4.7c-1.5,0-2.7,1.2-2.7,2.7V26c0,1.5,1.2,2.7,2.7,2.7h32c1.5,0,2.7-1.2,2.7-2.7V7.3
			c0-1.5-1.2-2.7-2.7-2.7H4L4,4.7z"/>
	</g>
</g>
</svg>
