<?xml version="1.0" encoding="utf-8"?>
<!-- Generator: Adobe Illustrator 18.0.0, SVG Export Plug-In . SVG Version: 6.00 Build 0)  -->
<!DOCTYPE svg PUBLIC "-//W3C//DTD SVG 1.1//EN" "http://www.w3.org/Graphics/SVG/1.1/DTD/svg11.dtd">
<svg version="1.1" id="Layer_1" xmlns:sketch="http://www.bohemiancoding.com/sketch/ns"
	 xmlns="http://www.w3.org/2000/svg" xmlns:xlink="http://www.w3.org/1999/xlink" x="0px" y="0px" width="50px" height="35px"
	 viewBox="0 0 50 35" enable-background="new 0 0 50 35" xml:space="preserve">
<title>camera 2</title>
<desc>Created with Sketch.</desc>
<g id="Page-1" sketch:type="MSPage">
	<g id="camera-2" sketch:type="MSLayerGroup">
		<path id="Shape" sketch:type="MSShapeGroup" d="M43.1,35H7.7c-4,0-7.7-3.6-7.7-7.5V10.8C0,7,3.7,3.3,7.7,3.3h8.9l1.9-3
			C18.7,0.1,18.9,0,19.2,0h12.6c0.3,0,0.5,0.1,0.7,0.4l1.9,3h8.7c3.7,0,6.9,3.4,6.9,7.5v16.7C50,31.6,46.8,35,43.1,35L43.1,35z
			 M7.7,5c-3,0-6,2.9-6,5.8v16.7c0,2.9,3,5.8,6,5.8h35.4c2.8,0,5.2-2.7,5.2-5.8V10.8c0-3.2-2.4-5.8-5.2-5.8h-9.2
			c-0.3,0-0.5-0.1-0.7-0.4l-1.9-3H19.7l-1.9,3C17.6,4.9,17.3,5,17.1,5H7.7L7.7,5z"/>
		<path id="Shape_1_" sketch:type="MSShapeGroup" d="M25.4,29.4c-6.2,0-11.2-5-11.2-11.2c0-6.2,5-11.2,11.2-11.2s11.3,5,11.3,11.2
			C36.6,24.3,31.6,29.4,25.4,29.4L25.4,29.4z M25.4,8.5c-5.3,0-9.6,4.3-9.6,9.6s4.3,9.6,9.6,9.6s9.6-4.3,9.6-9.6S30.7,8.5,25.4,8.5
			L25.4,8.5z"/>
		<path id="Shape_2_" sketch:type="MSShapeGroup" d="M9.2,4.2c-0.5,0-0.8-0.4-0.8-0.8V1.7c0-0.5,0.4-0.8,0.8-0.8S10,1.2,10,1.7v1.7
			C10,3.8,9.6,4.2,9.2,4.2L9.2,4.2z"/>
		<path id="Shape_3_" sketch:type="MSShapeGroup" d="M43.3,10h-1.7c-0.5,0-0.8-0.4-0.8-0.8s0.4-0.8,0.8-0.8h1.7
			c0.5,0,0.8,0.4,0.8,0.8S43.8,10,43.3,10L43.3,10z"/>
	</g>
</g>
</svg>
