<?xml version="1.0" encoding="utf-8"?>
<!-- Generator: Adobe Illustrator 18.0.0, SVG Export Plug-In . SVG Version: 6.00 Build 0)  -->
<!DOCTYPE svg PUBLIC "-//W3C//DTD SVG 1.1//EN" "http://www.w3.org/Graphics/SVG/1.1/DTD/svg11.dtd">
<svg version="1.1" id="Layer_1" xmlns:sketch="http://www.bohemiancoding.com/sketch/ns"
	 xmlns="http://www.w3.org/2000/svg" xmlns:xlink="http://www.w3.org/1999/xlink" x="0px" y="0px" width="102px" height="120px"
	 viewBox="0 0 102 120" enable-background="new 0 0 102 120" xml:space="preserve">
<title>dove</title>
<desc>Created with Sketch.</desc>
<g id="Page-1" sketch:type="MSPage">
	<g id="dove" sketch:type="MSLayerGroup">
		<path id="Shape" sketch:type="MSShapeGroup" d="M63,119.5c-15.8,0-19.5-10.4-22.1-18c-0.5-1.4-0.9-2.7-1.4-3.9
			C26.7,97.3,23.2,91.3,20,86.1c-3.1-5.2-5.8-9.6-17.3-9.6c-0.7,0-1.4-0.4-1.7-1c-0.4-0.6-0.3-1.4,0-2c4.8-8,8.9-11.6,13.3-11.6
			c3.1,0,5.7,1.9,7.9,3.5c2,1.5,3.9,2.9,5.9,2.9c7.6,0,20.3-12.6,32.5-24.8c13-13,21.9-22.8,31.6-37.4c0.4-0.6,1.1-0.9,1.8-0.9
			c0.7,0,1.3,0.5,1.7,1.1c7.2,14.5,8.7,38.7-2.4,57.1c-5.6,9.3-16.7,20.5-37.5,21.6c1.7,7.9,13.6,8.8,19,8.8c7.3,0,13.7,4.9,14.2,11
			c0.2,2.6-0.5,11.2-18.1,14.1C68,119.3,65.4,119.5,63,119.5L63,119.5z M6.2,72.6c11,1,14.3,6.5,17.2,11.4c3.1,5.2,5.8,9.6,17.3,9.6
			c0.8,0,1.4,0.4,1.8,1.1c0.8,1.6,1.5,3.5,2.1,5.5c2.6,7.5,5.3,15.3,18.3,15.3c2.1,0,4.5-0.2,7.1-0.6c9.5-1.6,15.1-5.4,14.8-9.8
			c-0.3-3.6-4.5-7.4-10.2-7.4c-14.5,0-23.2-5.5-23.2-14.7c0-1.1,0.9-2,2-2c20.4-0.4,31-10.9,36.4-19.7c9.6-15.8,9.1-36.4,3.7-50
			C84.3,24.5,75.6,34,63.4,46.3c-13.4,13.4-26,26-35.3,26c-3.3,0-5.9-1.9-8.3-3.7c-1.9-1.4-3.7-2.8-5.5-2.8
			C12,65.8,9.3,68.1,6.2,72.6L6.2,72.6z"/>
		<path id="Shape_1_" sketch:type="MSShapeGroup" d="M19.6,68c-0.5,0-1-0.2-1.4-0.6c-1.5-1.5-5.2-5.7-6.2-11.3
			c-0.8-4.1-0.3-10.4,6.2-16.9c11-11,14.6-22,17.1-29.3c1.4-4.1,2.3-7,4.1-8.8c0.4-0.4,0.9-0.6,1.4-0.6c3,0,6,2.8,8.6,8.1
			c6.2,12.9,9.1,38.4-4,54.7c-0.7,0.9-1.9,1-2.8,0.3c-0.9-0.7-1-1.9-0.3-2.8c11.8-14.8,9.1-38.9,3.5-50.5c-1.5-3.2-3.1-5-4.2-5.6
			c-0.8,1.4-1.6,3.7-2.5,6.4c-2.6,7.7-6.4,19.3-18,30.9c-4.2,4.2-5.9,8.7-5.1,13.4c0.8,4.5,3.8,7.9,5.1,9.2c0.8,0.8,0.8,2.1,0,2.8
			C20.6,67.8,20.1,68,19.6,68L19.6,68z"/>
	</g>
</g>
</svg>
