<?xml version="1.0" encoding="utf-8"?>
<!-- Generator: Adobe Illustrator 18.0.0, SVG Export Plug-In . SVG Version: 6.00 Build 0)  -->
<!DOCTYPE svg PUBLIC "-//W3C//DTD SVG 1.1//EN" "http://www.w3.org/Graphics/SVG/1.1/DTD/svg11.dtd">
<svg version="1.1" id="Layer_1" xmlns:sketch="http://www.bohemiancoding.com/sketch/ns"
	 xmlns="http://www.w3.org/2000/svg" xmlns:xlink="http://www.w3.org/1999/xlink" x="0px" y="0px" width="40px" height="29px"
	 viewBox="0 0 40 29" enable-background="new 0 0 40 29" xml:space="preserve">
<title>envelope</title>
<desc>Created with Sketch.</desc>
<g id="Page-1" sketch:type="MSPage">
	<g id="envelope" sketch:type="MSLayerGroup">
		<path id="Shape" sketch:type="MSShapeGroup" d="M36,29H4c-2.2,0-4-1.8-4-4V4c0-2.2,1.8-4,4-4h32c2.2,0,4,1.8,4,4V25
			C40,27.2,38.2,29,36,29L36,29z M4,1.3C2.5,1.3,1.3,2.5,1.3,4V25c0,1.5,1.2,2.6,2.7,2.6h32c1.5,0,2.7-1.2,2.7-2.6V4
			c0-1.5-1.2-2.6-2.7-2.6H4L4,1.3z"/>
		<path id="Shape_1_" sketch:type="MSShapeGroup" d="M20.3,19.2c-1.6,0-3.2-0.7-4.3-1.9L1.7,1.8c-0.2-0.3-0.2-0.7,0-0.9
			c0.3-0.2,0.7-0.2,0.9,0L17,16.4c1.8,1.9,4.9,1.9,6.7,0L37.9,1c0.3-0.3,0.4,0.1,0.7,0.4c0.3,0.2,0.5,0.3,0.3,0.5L24.6,17.2
			C23.5,18.5,22,19.2,20.3,19.2L20.3,19.2z"/>
		<path id="Shape_2_" sketch:type="MSShapeGroup" d="M2.2,28c-0.2,0-0.4-0.1-0.5-0.2c-0.2-0.3-0.2-0.7,0-0.9l13.1-11.8
			c0.3-0.2,0.7-0.2,0.9,0c0.3,0.3,0.2,0.7,0,0.9L2.6,27.8C2.5,27.9,2.3,28,2.2,28L2.2,28z"/>
		<path id="Shape_3_" sketch:type="MSShapeGroup" d="M38.4,27.9c-0.2,0-0.3-0.1-0.4-0.2L25,16c-0.3-0.2-0.3-0.7,0-0.9
			c0.3-0.3,0.7-0.3,0.9,0l13,11.7c0.3,0.2,0.3,0.7,0,0.9C38.8,27.8,38.6,27.9,38.4,27.9L38.4,27.9z"/>
	</g>
</g>
</svg>
