<?xml version="1.0" encoding="utf-8"?>
<!-- Generator: Adobe Illustrator 18.0.0, SVG Export Plug-In . SVG Version: 6.00 Build 0)  -->
<!DOCTYPE svg PUBLIC "-//W3C//DTD SVG 1.1//EN" "http://www.w3.org/Graphics/SVG/1.1/DTD/svg11.dtd">
<svg version="1.1" id="Layer_1" xmlns:sketch="http://www.bohemiancoding.com/sketch/ns"
	 xmlns="http://www.w3.org/2000/svg" xmlns:xlink="http://www.w3.org/1999/xlink" x="0px" y="0px" width="40px" height="51px"
	 viewBox="0 0 40 51" enable-background="new 0 0 40 51" xml:space="preserve">
<title>lock</title>
<desc>Created with Sketch.</desc>
<g id="Page-1_1_" sketch:type="MSPage">
	<g id="lock" transform="translate(0.000000, -1.000000)" sketch:type="MSLayerGroup">
		<g id="Page-1" sketch:type="MSShapeGroup">
			<g id="lock-3">
				<path id="Shape" d="M20,51.9c-10.7,0-19.4-8.7-19.4-19.5S9.3,12.9,20,12.9s19.4,8.7,19.4,19.5S30.7,51.9,20,51.9L20,51.9
					L20,51.9z M20,14.8c-9.7,0-17.5,7.8-17.5,17.6S10.3,50,20,50s17.5-7.8,17.5-17.6S29.7,14.8,20,14.8L20,14.8L20,14.8z"/>
				<path id="Shape_1_" d="M36.6,24.6c-0.4,0-0.8-0.4-0.8-0.8v-5.3c0-8.7-7.2-15.7-15.8-15.7S4.2,10,4.2,18.9V24
					c0,0.4-0.4,0.8-0.8,0.8S2.5,24.4,2.5,24v-5.1C2.5,9.1,10.3,1.1,20,1.1s17.5,7.8,17.5,17.6V24C37.5,24.2,37.1,24.6,36.6,24.6
					L36.6,24.6L36.6,24.6z"/>
				<path id="Shape_2_" d="M20.8,43.2h-1.7c-1.5,0-2.5-1.3-2.5-2.5v-4c-1.1-1.1-1.7-2.3-1.7-4c0-3,2.3-5.3,5.3-5.3s5.1,2.3,5.1,5.3
					c0,1.5-0.6,3-1.7,4v4C23.6,42,22.3,43.2,20.8,43.2L20.8,43.2L20.8,43.2z M20,29c-1.9,0-3.6,1.5-3.6,3.6c0,1.1,0.4,2.1,1.5,2.8
					c0.2,0.2,0.4,0.4,0.4,0.6v4.5c0,0.4,0.4,0.8,0.8,0.8h1.7c0.4,0,0.8-0.4,0.8-0.8V36c0-0.2,0.2-0.6,0.4-0.6
					c0.8-0.6,1.5-1.7,1.5-2.8C23.6,30.7,21.9,29,20,29L20,29L20,29z"/>
			</g>
		</g>
	</g>
</g>
</svg>
