<?xml version="1.0" encoding="utf-8"?>
<!-- Generator: Adobe Illustrator 18.0.0, SVG Export Plug-In . SVG Version: 6.00 Build 0)  -->
<!DOCTYPE svg PUBLIC "-//W3C//DTD SVG 1.1//EN" "http://www.w3.org/Graphics/SVG/1.1/DTD/svg11.dtd">
<svg version="1.1" id="Layer_1" xmlns:sketch="http://www.bohemiancoding.com/sketch/ns"
	 xmlns="http://www.w3.org/2000/svg" xmlns:xlink="http://www.w3.org/1999/xlink" x="0px" y="0px" width="40px" height="40px"
	 viewBox="0 0 40 40" enable-background="new 0 0 40 40" xml:space="preserve">
<title>magnifi glass 2</title>
<desc>Created with Sketch.</desc>
<g id="Page-1" sketch:type="MSPage">
	<g id="magnifi-glass-2" sketch:type="MSLayerGroup">
		<path id="Shape" sketch:type="MSShapeGroup" d="M15.2,30.4c-4,0-7.8-1.6-10.7-4.4c-5.9-5.9-5.9-15.5,0-21.5C7.4,1.6,11.2,0,15.2,0
			c4,0,7.8,1.6,10.7,4.4c5.9,5.9,5.9,15.5,0,21.5C23.1,28.8,19.3,30.4,15.2,30.4L15.2,30.4z M15.2,1.5c-3.7,0-7.1,1.4-9.7,4
			c-5.3,5.4-5.3,14.1,0,19.4c2.6,2.6,6,4,9.7,4c3.7,0,7.1-1.4,9.7-4c5.3-5.4,5.3-14.1,0-19.4C22.3,2.9,18.9,1.5,15.2,1.5L15.2,1.5z"
			/>
		<path id="Shape_1_" sketch:type="MSShapeGroup" d="M37.1,40c-0.7,0-1.4-0.3-1.9-0.8L22.9,26.9l3.9-3.9l12.2,12.3c1,1,1,2.7,0,3.8
			L39,39.2C38.4,39.7,37.8,40,37.1,40L37.1,40z M25,26.9l11.2,11.3c0.5,0.5,1.3,0.5,1.8,0l0.1-0.1c0.5-0.5,0.5-1.3,0-1.8L26.9,25
			L25,26.9L25,26.9z"/>
	</g>
</g>
</svg>
