<?xml version="1.0" encoding="utf-8"?>
<!-- Generator: Adobe Illustrator 18.0.0, SVG Export Plug-In . SVG Version: 6.00 Build 0)  -->
<!DOCTYPE svg PUBLIC "-//W3C//DTD SVG 1.1//EN" "http://www.w3.org/Graphics/SVG/1.1/DTD/svg11.dtd">
<svg version="1.1" id="Layer_1" xmlns:sketch="http://www.bohemiancoding.com/sketch/ns"
	 xmlns="http://www.w3.org/2000/svg" xmlns:xlink="http://www.w3.org/1999/xlink" x="0px" y="0px" width="40px" height="45px"
	 viewBox="0 0 40 45" enable-background="new 0 0 40 45" xml:space="preserve">
<title>present</title>
<desc>Created with Sketch.</desc>
<g id="Page-1" sketch:type="MSPage">
	<g id="present" sketch:type="MSLayerGroup">
		<path id="Shape" sketch:type="MSShapeGroup" d="M37.7,44.8H2.3c-0.4,0-0.8-0.3-0.8-0.8V19.6c0-0.4,0.3-0.8,0.8-0.8h35.4
			c0.4,0,0.8,0.3,0.8,0.8V44C38.5,44.4,38.1,44.8,37.7,44.8L37.7,44.8z M3.1,43.3h33.8V20.4H3.1V43.3L3.1,43.3z"/>
		<path id="Shape_1_" sketch:type="MSShapeGroup" d="M39.2,20.4H0.8C0.3,20.4,0,20,0,19.6V12c0-0.4,0.3-0.8,0.8-0.8h38.5
			c0.4,0,0.8,0.3,0.8,0.8v7.6C40,20,39.7,20.4,39.2,20.4L39.2,20.4z M1.5,18.9h36.9v-6.1H1.5V18.9L1.5,18.9z"/>
		<path id="Shape_2_" sketch:type="MSShapeGroup" d="M20.8,44c-0.4,0-0.8-0.3-0.8-0.8V12.8c0-0.4,0.3-0.8,0.8-0.8
			c0.4,0,0.8,0.3,0.8,0.8v30.5C21.5,43.7,21.2,44,20.8,44L20.8,44z"/>
		<path id="Shape_3_" sketch:type="MSShapeGroup" d="M8.2,12.8c-3.8,0-6.1-4.1-6.1-6.3C2.1,4.4,3.8,2,8.6,2c4.4,0,9.6,4,12.2,7.8
			c0.2,0.3,0.2,0.8-0.2,1.1c-0.3,0.2-0.8,0.2-1.1-0.2c-2.5-3.5-7.3-7.1-11-7.1c-3.6,0-4.9,1.5-4.9,3c0,1.5,1.7,4.8,4.5,4.8
			c0.4,0,0.8,0.3,0.8,0.8C8.9,12.4,8.6,12.8,8.2,12.8L8.2,12.8z"/>
		<path id="Shape_4_" sketch:type="MSShapeGroup" d="M32.2,12.8c-0.4,0-0.8-0.3-0.8-0.8s0.3-0.8,0.8-0.8c2.8,0,4.5-3.3,4.5-4.8
			c0-1.4-1.3-3-4.9-3c-3.7,0-8.5,3.6-11,7.1c-0.2,0.3-0.7,0.4-1.1,0.2c-0.3-0.2-0.4-0.7-0.2-1.1C22.2,6,27.4,2,31.8,2
			c4.8,0,6.5,2.4,6.5,4.5C38.3,8.7,36,12.8,32.2,12.8L32.2,12.8z"/>
		<path id="Shape_5_" sketch:type="MSShapeGroup" d="M20.2,10c-0.4,0-0.8-0.3-0.8-0.8c0-1.8-2.5-5.5-4.7-7.7c-0.3-0.3-0.3-0.8,0-1.1
			s0.8-0.3,1.1,0c2.2,2.1,5.2,6.3,5.2,8.8C20.9,9.7,20.6,10,20.2,10L20.2,10z"/>
		<path id="Shape_6_" sketch:type="MSShapeGroup" d="M20.2,10c-0.4,0-0.8-0.3-0.8-0.8c0-2.5,3-6.7,5.2-8.8c0.3-0.3,0.8-0.3,1.1,0
			c0.3,0.3,0.3,0.8,0,1.1c-2.2,2.2-4.7,5.9-4.7,7.7C20.9,9.7,20.6,10,20.2,10L20.2,10z"/>
	</g>
</g>
</svg>
