<?xml version="1.0" encoding="utf-8"?>
<!-- Generator: Adobe Illustrator 18.0.0, SVG Export Plug-In . SVG Version: 6.00 Build 0)  -->
<!DOCTYPE svg PUBLIC "-//W3C//DTD SVG 1.1//EN" "http://www.w3.org/Graphics/SVG/1.1/DTD/svg11.dtd">
<svg version="1.1" id="Layer_1" xmlns:sketch="http://www.bohemiancoding.com/sketch/ns"
	 xmlns="http://www.w3.org/2000/svg" xmlns:xlink="http://www.w3.org/1999/xlink" x="0px" y="0px" width="40px" height="33px"
	 viewBox="0 0 40 33" enable-background="new 0 0 40 33" xml:space="preserve">
<title>settings window</title>
<desc>Created with Sketch.</desc>
<g id="Page-1" sketch:type="MSPage">
	<g id="settings-window" sketch:type="MSLayerGroup">
		<path id="Shape" sketch:type="MSShapeGroup" d="M39.3,33H0.7C0.3,33,0,32.7,0,32.3V0.7C0,0.3,0.3,0,0.7,0h38.7
			C39.7,0,40,0.3,40,0.7v31.7C40,32.7,39.7,33,39.3,33L39.3,33z M1.3,31.7h37.3V1.3H1.3V31.7L1.3,31.7z"/>
		<path id="Shape_1_" sketch:type="MSShapeGroup" d="M38.7,7.9H1.3C1,7.9,0.7,7.6,0.7,7.3c0-0.4,0.3-0.7,0.7-0.7h37.3
			c0.4,0,0.7,0.3,0.7,0.7C39.3,7.6,39,7.9,38.7,7.9L38.7,7.9z"/>
		<path id="Shape_2_" sketch:type="MSShapeGroup" d="M5.3,4.3c0,0.5-0.4,0.8-0.8,0.8S3.7,4.7,3.7,4.3S4,3.5,4.5,3.5S5.3,3.8,5.3,4.3
			L5.3,4.3z"/>
		<path id="Shape_3_" sketch:type="MSShapeGroup" d="M8.7,4.3c0,0.5-0.4,0.8-0.8,0.8C7.4,5.1,7,4.7,7,4.3s0.4-0.8,0.8-0.8
			C8.3,3.5,8.7,3.8,8.7,4.3L8.7,4.3z"/>
		<path id="Shape_4_" sketch:type="MSShapeGroup" d="M12,4.3c0,0.5-0.4,0.8-0.8,0.8c-0.5,0-0.8-0.4-0.8-0.8s0.4-0.8,0.8-0.8
			C11.6,3.5,12,3.8,12,4.3L12,4.3z"/>
		<path id="Shape_5_" sketch:type="MSShapeGroup" d="M24.4,20.1c-0.4,0-0.7-0.3-0.7-0.7v-1.2c0-0.4,0.3-0.7,0.7-0.7
			c0.4,0,0.7,0.3,0.7,0.7v1.2C25.1,19.8,24.8,20.1,24.4,20.1L24.4,20.1z"/>
		<path id="Shape_6_" sketch:type="MSShapeGroup" d="M24.4,29c-0.4,0-0.7-0.3-0.7-0.7v-1.2c0-0.4,0.3-0.7,0.7-0.7
			c0.4,0,0.7,0.3,0.7,0.7v1.2C25.1,28.7,24.8,29,24.4,29L24.4,29z"/>
		<path id="Shape_7_" sketch:type="MSShapeGroup" d="M20.5,23.9h-1.3c-0.4,0-0.7-0.3-0.7-0.7c0-0.4,0.3-0.7,0.7-0.7h1.3
			c0.4,0,0.7,0.3,0.7,0.7C21.2,23.6,20.9,23.9,20.5,23.9L20.5,23.9z"/>
		<path id="Shape_8_" sketch:type="MSShapeGroup" d="M29.6,23.9h-1.3c-0.4,0-0.7-0.3-0.7-0.7c0-0.4,0.3-0.7,0.7-0.7h1.3
			c0.4,0,0.7,0.3,0.7,0.7C30.2,23.6,29.9,23.9,29.6,23.9L29.6,23.9z"/>
		<path id="Shape_9_" sketch:type="MSShapeGroup" d="M21.7,21.2c-0.2,0-0.3-0.1-0.5-0.2l-0.9-0.9c-0.3-0.3-0.3-0.7,0-0.9
			c0.3-0.3,0.7-0.3,0.9,0l0.9,0.9c0.3,0.3,0.3,0.7,0,0.9C22,21.1,21.8,21.2,21.7,21.2L21.7,21.2z"/>
		<path id="Shape_10_" sketch:type="MSShapeGroup" d="M28,27.5c-0.2,0-0.3-0.1-0.5-0.2l-0.9-0.9c-0.3-0.3-0.3-0.7,0-0.9
			c0.3-0.3,0.7-0.3,0.9,0l0.9,0.9c0.3,0.3,0.3,0.7,0,0.9C28.4,27.5,28.2,27.5,28,27.5L28,27.5z"/>
		<path id="Shape_11_" sketch:type="MSShapeGroup" d="M20.8,27.5c-0.2,0-0.3-0.1-0.5-0.2c-0.3-0.3-0.3-0.7,0-0.9l0.9-0.9
			c0.3-0.3,0.7-0.3,0.9,0s0.3,0.7,0,0.9l-0.9,0.9C21.1,27.5,21,27.5,20.8,27.5L20.8,27.5z"/>
		<path id="Shape_12_" sketch:type="MSShapeGroup" d="M27.2,21.2c-0.2,0-0.3-0.1-0.5-0.2c-0.3-0.3-0.3-0.7,0-0.9l0.9-0.9
			c0.3-0.3,0.7-0.3,0.9,0c0.3,0.3,0.3,0.7,0,0.9L27.6,21C27.5,21.1,27.3,21.2,27.2,21.2L27.2,21.2z"/>
		<path id="Shape_13_" sketch:type="MSShapeGroup" d="M24.4,27.5c-2.4,0-4.4-2-4.4-4.4c0-2.4,2-4.4,4.4-4.4c2.4,0,4.4,2,4.4,4.4
			C28.8,25.5,26.9,27.5,24.4,27.5L24.4,27.5z M24.4,20.1c-1.7,0-3.1,1.4-3.1,3.1c0,1.7,1.4,3.1,3.1,3.1c1.7,0,3.1-1.4,3.1-3.1
			C27.5,21.4,26.1,20.1,24.4,20.1L24.4,20.1z"/>
		<path id="Shape_14_" sketch:type="MSShapeGroup" d="M19.4,13.1c-0.4,0-0.7-0.3-0.7-0.7v-0.8c0-0.4,0.3-0.7,0.7-0.7
			s0.7,0.3,0.7,0.7v0.8C20.1,12.8,19.8,13.1,19.4,13.1L19.4,13.1z"/>
		<path id="Shape_15_" sketch:type="MSShapeGroup" d="M19.4,18.8c-0.4,0-0.7-0.3-0.7-0.7v-0.8c0-0.4,0.3-0.7,0.7-0.7
			s0.7,0.3,0.7,0.7v0.8C20.1,18.5,19.8,18.8,19.4,18.8L19.4,18.8z"/>
		<path id="Shape_16_" sketch:type="MSShapeGroup" d="M16.9,15.5h-0.8c-0.4,0-0.7-0.3-0.7-0.7s0.3-0.7,0.7-0.7h0.8
			c0.4,0,0.7,0.3,0.7,0.7S17.3,15.5,16.9,15.5L16.9,15.5z"/>
		<path id="Shape_17_" sketch:type="MSShapeGroup" d="M22.8,15.5h-0.8c-0.4,0-0.7-0.3-0.7-0.7s0.3-0.7,0.7-0.7h0.8
			c0.4,0,0.7,0.3,0.7,0.7S23.1,15.5,22.8,15.5L22.8,15.5z"/>
		<path id="Shape_18_" sketch:type="MSShapeGroup" d="M17.6,13.8c-0.2,0-0.3-0.1-0.5-0.2L16.6,13c-0.3-0.3-0.3-0.7,0-0.9
			c0.3-0.3,0.7-0.3,0.9,0l0.6,0.6c0.3,0.3,0.3,0.7,0,0.9C18,13.7,17.8,13.8,17.6,13.8L17.6,13.8z"/>
		<path id="Shape_19_" sketch:type="MSShapeGroup" d="M21.8,17.9c-0.2,0-0.3-0.1-0.5-0.2l-0.6-0.6c-0.3-0.3-0.3-0.7,0-0.9
			c0.3-0.3,0.7-0.3,0.9,0l0.6,0.6c0.3,0.3,0.3,0.7,0,0.9C22.1,17.8,21.9,17.9,21.8,17.9L21.8,17.9z"/>
		<path id="Shape_20_" sketch:type="MSShapeGroup" d="M17.1,17.9c-0.2,0-0.3-0.1-0.5-0.2c-0.3-0.3-0.3-0.7,0-0.9l0.6-0.6
			c0.3-0.3,0.7-0.3,0.9,0c0.3,0.3,0.3,0.7,0,0.9l-0.6,0.6C17.4,17.8,17.2,17.9,17.1,17.9L17.1,17.9z"/>
		<path id="Shape_21_" sketch:type="MSShapeGroup" d="M21.2,13.8c-0.2,0-0.3-0.1-0.5-0.2c-0.3-0.3-0.3-0.7,0-0.9l0.6-0.6
			c0.3-0.3,0.7-0.3,0.9,0c0.3,0.3,0.3,0.7,0,0.9l-0.6,0.6C21.5,13.7,21.4,13.8,21.2,13.8L21.2,13.8z"/>
		<path id="Shape_22_" sketch:type="MSShapeGroup" d="M19.4,18c-1.7,0-3.2-1.4-3.2-3.1c0-1.7,1.4-3.1,3.2-3.1c1.7,0,3.2,1.4,3.2,3.1
			C22.6,16.6,21.2,18,19.4,18L19.4,18z M19.4,13.1c-1,0-1.8,0.8-1.8,1.8c0,1,0.8,1.8,1.8,1.8c1,0,1.8-0.8,1.8-1.8
			S20.4,13.1,19.4,13.1L19.4,13.1z"/>
		<path id="Shape_23_" sketch:type="MSShapeGroup" d="M14.4,23c-0.4,0-0.7-0.3-0.7-0.7v-0.8c0-0.4,0.3-0.7,0.7-0.7s0.7,0.3,0.7,0.7
			v0.8C15.1,22.7,14.8,23,14.4,23L14.4,23z"/>
		<path id="Shape_24_" sketch:type="MSShapeGroup" d="M14.4,28.7c-0.4,0-0.7-0.3-0.7-0.7v-0.8c0-0.4,0.3-0.7,0.7-0.7
			s0.7,0.3,0.7,0.7v0.8C15.1,28.4,14.8,28.7,14.4,28.7L14.4,28.7z"/>
		<path id="Shape_25_" sketch:type="MSShapeGroup" d="M11.9,25.4h-0.8c-0.4,0-0.7-0.3-0.7-0.7c0-0.4,0.3-0.7,0.7-0.7h0.8
			c0.4,0,0.7,0.3,0.7,0.7C12.6,25.1,12.3,25.4,11.9,25.4L11.9,25.4z"/>
		<path id="Shape_26_" sketch:type="MSShapeGroup" d="M17.7,25.4h-0.8c-0.4,0-0.7-0.3-0.7-0.7c0-0.4,0.3-0.7,0.7-0.7h0.8
			c0.4,0,0.7,0.3,0.7,0.7C18.4,25.1,18.1,25.4,17.7,25.4L17.7,25.4z"/>
		<path id="Shape_27_" sketch:type="MSShapeGroup" d="M12.6,23.7c-0.2,0-0.3-0.1-0.5-0.2l-0.6-0.6c-0.3-0.3-0.3-0.7,0-0.9
			c0.3-0.3,0.7-0.3,0.9,0l0.6,0.6c0.3,0.3,0.3,0.7,0,0.9C13,23.6,12.8,23.7,12.6,23.7L12.6,23.7z"/>
		<path id="Shape_28_" sketch:type="MSShapeGroup" d="M16.8,27.8c-0.2,0-0.3-0.1-0.5-0.2L15.7,27c-0.3-0.3-0.3-0.7,0-0.9
			s0.7-0.3,0.9,0l0.6,0.6c0.3,0.3,0.3,0.7,0,0.9C17.1,27.7,16.9,27.8,16.8,27.8L16.8,27.8z"/>
		<path id="Shape_29_" sketch:type="MSShapeGroup" d="M12.1,27.8c-0.2,0-0.3-0.1-0.5-0.2c-0.3-0.3-0.3-0.7,0-0.9l0.6-0.6
			c0.3-0.3,0.7-0.3,0.9,0s0.3,0.7,0,0.9l-0.6,0.6C12.4,27.7,12.2,27.8,12.1,27.8L12.1,27.8z"/>
		<path id="Shape_30_" sketch:type="MSShapeGroup" d="M16.2,23.7c-0.2,0-0.3-0.1-0.5-0.2c-0.3-0.3-0.3-0.7,0-0.9l0.6-0.6
			c0.3-0.3,0.7-0.3,0.9,0c0.3,0.3,0.3,0.7,0,0.9l-0.6,0.6C16.5,23.6,16.4,23.7,16.2,23.7L16.2,23.7z"/>
		<path id="Shape_31_" sketch:type="MSShapeGroup" d="M14.4,27.9c-1.7,0-3.2-1.4-3.2-3.1c0-1.7,1.4-3.1,3.2-3.1s3.2,1.4,3.2,3.1
			C17.6,26.5,16.2,27.9,14.4,27.9L14.4,27.9z M14.4,23c-1,0-1.8,0.8-1.8,1.8c0,1,0.8,1.8,1.8,1.8s1.8-0.8,1.8-1.8
			C16.2,23.8,15.4,23,14.4,23L14.4,23z"/>
	</g>
</g>
</svg>
