<?xml version="1.0" encoding="utf-8"?>
<!-- Generator: Adobe Illustrator 18.0.0, SVG Export Plug-In . SVG Version: 6.00 Build 0)  -->
<!DOCTYPE svg PUBLIC "-//W3C//DTD SVG 1.1//EN" "http://www.w3.org/Graphics/SVG/1.1/DTD/svg11.dtd">
<svg version="1.1" id="Layer_1" xmlns:sketch="http://www.bohemiancoding.com/sketch/ns"
	 xmlns="http://www.w3.org/2000/svg" xmlns:xlink="http://www.w3.org/1999/xlink" x="0px" y="0px" width="50px" height="57px"
	 viewBox="0 0 50 57" enable-background="new 0 0 50 57" xml:space="preserve">
<title>bag coins</title>
<desc>Created with Sketch.</desc>
<g id="Page-1" sketch:type="MSPage">
	<g id="bag-coins" sketch:type="MSLayerGroup">
		<path id="Shape" sketch:type="MSShapeGroup" d="M38.2,27.5c-0.5,0-0.9-0.4-0.9-0.9V9.3c0-4.5-3-7.4-7.8-7.4h-2.4
			c-4.2,0-8.7,2.3-8.7,7.4v17.3c0,0.5-0.4,0.9-0.9,0.9c-0.5,0-0.9-0.4-0.9-0.9V9.3C16.5,3.9,21,0,27.1,0h2.4c5.9,0,9.7,3.6,9.7,9.3
			v17.3C39.2,27.1,38.8,27.5,38.2,27.5L38.2,27.5z"/>
		<path id="Shape_1_" sketch:type="MSShapeGroup" d="M33.5,57H1.2c-0.3,0-0.6-0.1-0.8-0.4c-0.2-0.2-0.2-0.6-0.1-0.9l11.8-36.1
			c0.1-0.4,0.5-0.7,0.9-0.7h30.7c0.4,0,0.8,0.3,0.9,0.7l5.2,15.7c0.2,0.5-0.1,1-0.6,1.2c-0.5,0.2-1-0.1-1.2-0.6l-5-15.1H13.7
			L2.5,55.1h31c0.5,0,0.9,0.4,0.9,1S34,57,33.5,57L33.5,57z"/>
		<path id="Shape_2_" sketch:type="MSShapeGroup" d="M41.6,52.7c-2.5,0-4.2-1.5-4.2-3.7c0-0.5,0.4-0.9,0.9-0.9
			c0.5,0,0.9,0.4,0.9,0.9c0,1.7,1.8,1.8,2.3,1.8c0.5,0,2.3-0.1,2.3-1.8c0-1-0.3-1.2-2.2-2.2l-1-0.5c-1.9-0.9-3.3-1.6-3.3-3.9
			c0-2.2,1.7-3.7,4.2-3.7c2.5,0,4.2,1.5,4.2,3.7c0,0.5-0.4,1-0.9,1c-0.5,0-0.9-0.4-0.9-1c0-1.6-1.6-1.8-2.3-1.8
			c-0.5,0-2.3,0.1-2.3,1.8c0,1,0.3,1.2,2.2,2.2l1,0.5c1.9,0.9,3.3,1.6,3.3,3.9C45.8,51.3,44.1,52.7,41.6,52.7L41.6,52.7z"/>
		<path id="Shape_3_" sketch:type="MSShapeGroup" d="M41.6,40.5c-0.5,0-0.9-0.4-0.9-1v-1.7c0-0.5,0.4-1,0.9-1c0.5,0,0.9,0.4,0.9,1
			v1.7C42.5,40,42.1,40.5,41.6,40.5L41.6,40.5z"/>
		<path id="Shape_4_" sketch:type="MSShapeGroup" d="M41.6,55.3c-0.5,0-0.9-0.4-0.9-1v-1.8c0-0.5,0.4-1,0.9-1c0.5,0,0.9,0.4,0.9,1
			v1.8C42.5,54.9,42.1,55.3,41.6,55.3L41.6,55.3z"/>
	</g>
</g>
</svg>
