<?xml version="1.0" encoding="utf-8"?>
<!-- Generator: Adobe Illustrator 18.0.0, SVG Export Plug-In . SVG Version: 6.00 Build 0)  -->
<!DOCTYPE svg PUBLIC "-//W3C//DTD SVG 1.1//EN" "http://www.w3.org/Graphics/SVG/1.1/DTD/svg11.dtd">
<svg version="1.1" id="Layer_1" xmlns:sketch="http://www.bohemiancoding.com/sketch/ns"
	 xmlns="http://www.w3.org/2000/svg" xmlns:xlink="http://www.w3.org/1999/xlink" x="0px" y="0px" width="70px" height="29px"
	 viewBox="0 0 70 29" enable-background="new 0 0 70 29" xml:space="preserve">
<title>taxi sign</title>
<desc>Created with Sketch.</desc>
<g id="Page-1" sketch:type="MSPage">
	<g id="taxi-sign" sketch:type="MSLayerGroup">
		<path id="Shape" sketch:type="MSShapeGroup" d="M64.2,29H5.8c-1.7,0-3.3-0.9-4.3-2.5c-1-1.4-1.1-3.4-0.4-5L9.8,2.4
			C10.9,0,13.6,0,14.5,0h40.9c0.9,0,3.6,0,4.7,2.4L69,21.7c0.7,1.6,0.6,3.2-0.4,4.7C67.7,27.6,66.2,29,64.2,29L64.2,29z M14.5,2.4
			c-1.8,0-2.2,0.5-2.5,1L3.3,22.5c-0.4,0.8-0.3,1.9,0.2,2.7C4,26,4.9,26.6,5.8,26.6h58.5c0.9,0,1.8-0.8,2.3-1.5
			c0.5-0.8,0.6-1.6,0.2-2.4L57.9,3.4c-0.2-0.5-0.7-1-2.5-1H14.5L14.5,2.4z"/>
		<path id="Shape_1_" sketch:type="MSShapeGroup" d="M24.9,7.3v2.2h-4.5V22h-2.8V9.5h-4.5V7.3H24.9L24.9,7.3z"/>
		<path id="Shape_2_" sketch:type="MSShapeGroup" d="M38.2,22h-2.1c-0.2,0-0.4-0.1-0.6-0.2c-0.2-0.1-0.3-0.3-0.3-0.4l-1.1-3h-6.2
			l-1.1,3c-0.1,0.2-0.2,0.3-0.3,0.4c-0.2,0.1-0.4,0.2-0.6,0.2h-2.2l5.9-14.7h2.8L38.2,22L38.2,22z M28.6,16.4h4.8l-1.8-4.9
			c-0.1-0.2-0.2-0.5-0.3-0.8c-0.1-0.3-0.2-0.6-0.3-1c-0.1,0.3-0.2,0.7-0.3,1c-0.1,0.3-0.2,0.6-0.3,0.8L28.6,16.4L28.6,16.4z"/>
		<path id="Shape_3_" sketch:type="MSShapeGroup" d="M43.3,14.4l-4.8-7.1h2.8c0.2,0,0.3,0,0.4,0.1c0.1,0.1,0.2,0.1,0.2,0.2l3.4,5.4
			c0-0.1,0.1-0.2,0.1-0.3c0-0.1,0.1-0.2,0.1-0.3l3.1-4.8c0.2-0.3,0.3-0.4,0.6-0.4H52l-4.8,7l4.9,7.7h-2.8c-0.2,0-0.3,0-0.4-0.1
			c-0.1-0.1-0.2-0.2-0.3-0.3l-3.5-5.6c0,0.1-0.1,0.2-0.1,0.2S45,16.2,45,16.3l-3.3,5.2c-0.1,0.1-0.2,0.2-0.3,0.3
			C41.3,21.9,41.1,22,41,22h-2.6L43.3,14.4L43.3,14.4z"/>
		<path id="Shape_4_" sketch:type="MSShapeGroup" d="M56.9,22h-2.8V7.3h2.8V22L56.9,22z"/>
	</g>
</g>
</svg>
