<?xml version="1.0" encoding="utf-8"?>
<!-- Generator: Adobe Illustrator 18.0.0, SVG Export Plug-In . SVG Version: 6.00 Build 0)  -->
<!DOCTYPE svg PUBLIC "-//W3C//DTD SVG 1.1//EN" "http://www.w3.org/Graphics/SVG/1.1/DTD/svg11.dtd">
<svg version="1.1" id="Layer_1" xmlns:sketch="http://www.bohemiancoding.com/sketch/ns"
	 xmlns="http://www.w3.org/2000/svg" xmlns:xlink="http://www.w3.org/1999/xlink" x="0px" y="0px" width="100px" height="116px"
	 viewBox="0 0 100 116" enable-background="new 0 0 100 116" xml:space="preserve">
<title>hand touchsmartphone</title>
<desc>Created with Sketch.</desc>
<g id="Page-1" sketch:type="MSPage">
	<g id="hand-touchsmartphone" sketch:type="MSLayerGroup">
		<path id="Shape" sketch:type="MSShapeGroup" d="M66.1,116h-64c-1.1,0-2-0.9-2-2V2c0-1.1,0.9-2,2-2h64c1.1,0,2,0.9,2,2v50h-4V4h-60
			v108h60v-12h4v14C68.1,115.1,67.2,116,66.1,116L66.1,116z"/>
		<path id="Shape_1_" sketch:type="MSShapeGroup" d="M40.1,84h-26c-1.1,0-2-0.9-2-2V14c0-1.1,0.9-2,2-2h44c1.1,0,2,0.9,2,2v42h-4V16
			h-40v64h24V84L40.1,84z"/>
		<path id="Shape_2_" sketch:type="MSShapeGroup" d="M34.8,103.4c-4.2,0-7.6-3.4-7.6-7.6c0-4.2,3.4-7.6,7.6-7.6s7.6,3.4,7.6,7.6
			C42.4,100,39,103.4,34.8,103.4L34.8,103.4z M34.8,92.2c-2,0-3.6,1.6-3.6,3.6s1.6,3.6,3.6,3.6c2,0,3.6-1.6,3.6-3.6
			C38.4,93.8,36.8,92.2,34.8,92.2L34.8,92.2z"/>
		<path id="Shape_3_" sketch:type="MSShapeGroup" d="M77,102.6c-6.9,0-15.8-3.3-23.8-6.3c-4.5-1.6-8.7-3.2-11.4-3.7
			c-4.1-0.7-6.5-3.3-6.5-6.9c0-2,0.7-3.9,2.1-5.3c1.3-1.3,3.1-2.1,4.9-2.1l6.8,0.2L28.3,57.7c-2.9-2.9-3-7.4-0.2-10.1
			c2.7-2.7,7.3-2.6,10.1,0.2l11,10.9c0.3-1,0.9-1.8,1.6-2.6c2-2,5.2-2.5,7.8-1.4c0.3-1.1,0.9-2.2,1.8-3.1c2.1-2.1,5.3-2.6,7.9-1.3
			c0.3-1.1,0.9-2.2,1.8-3.1c2.7-2.7,7.3-2.6,10.1,0.2l14.1,14.1c11.1,11.1,2.3,26.9,2.2,27.1c-0.1,0.2-0.2,0.3-0.3,0.4L85.3,99.8
			C83.5,101.7,80.7,102.6,77,102.6L77,102.6z M42.5,82.4c-0.8,0-1.5,0.3-2.1,0.9c-0.6,0.6-1,1.5-1,2.4c0,0.7,0,2.5,3.2,3
			c3,0.6,7.2,2.1,12,3.9c7.6,2.8,16.2,6,22.4,6c2.5,0,4.4-0.6,5.5-1.7l10.6-10.6c1-1.8,6.7-13.6-1.7-22L77.4,50.2
			c-1.3-1.3-3.3-1.4-4.5-0.2c-1.2,1.2-1.2,3.1,0.2,4.4c0.8,0.8,0.8,2,0,2.8c-0.8,0.8-2.1,0.8-2.8,0l-2.6-2.6
			c-1.3-1.3-3.3-1.4-4.5-0.2c-1.2,1.2-1.2,3.1,0.2,4.4l0,0c0.8,0.8,0.8,2,0,2.8c-0.8,0.8-2,0.8-2.8,0L58,59.1
			c-1.3-1.3-3.3-1.4-4.5-0.2c-0.6,0.6-0.9,1.3-0.9,2.1c0,0.8,0.4,1.6,1.1,2.3l0,0c0.8,0.8,0.8,2,0,2.8c-0.8,0.8-2.1,0.8-2.8,0l0,0
			L35.3,50.6c-1.3-1.3-3.2-1.4-4.4-0.2c-1.2,1.2-1.1,3.1,0.2,4.5l24.5,24.5c0.6,0.6,0.8,1.5,0.4,2.2c-0.3,0.8-1.1,1.2-1.9,1.2
			L42.5,82.4L42.5,82.4z"/>
	</g>
</g>
</svg>
