<?xml version="1.0" encoding="utf-8"?>
<!-- Generator: Adobe Illustrator 18.0.0, SVG Export Plug-In . SVG Version: 6.00 Build 0)  -->
<!DOCTYPE svg PUBLIC "-//W3C//DTD SVG 1.1//EN" "http://www.w3.org/Graphics/SVG/1.1/DTD/svg11.dtd">
<svg version="1.1" id="Layer_1" xmlns:sketch="http://www.bohemiancoding.com/sketch/ns"
	 xmlns="http://www.w3.org/2000/svg" xmlns:xlink="http://www.w3.org/1999/xlink" x="0px" y="0px" width="40px" height="41px"
	 viewBox="0 0 40 41" enable-background="new 0 0 40 41" xml:space="preserve">
<title>user</title>
<desc>Created with Sketch.</desc>
<g id="Page-1_1_" sketch:type="MSPage">
	<g id="user_1_" transform="translate(0.000000, -1.000000)" sketch:type="MSLayerGroup">
		<g id="Page-1" sketch:type="MSShapeGroup">
			<g id="user">
				<path id="Shape" d="M13.7,33.7C13.7,33.7,13.7,33.7,13.7,33.7c-0.3,0-0.5-0.2-0.6-0.4L7,22.6c-0.2-0.3-0.1-0.8,0.3-1
					c0.3-0.2,0.8-0.1,1,0.3l5.6,9.9l5.6-5.7c0.3-0.3,0.7-0.3,1,0c0.3,0.3,0.3,0.7,0,1l-6.3,6.4C14.1,33.6,13.9,33.7,13.7,33.7
					L13.7,33.7L13.7,33.7z"/>
				<path id="Shape_1_" d="M26.3,33.7c-0.2,0-0.4-0.1-0.5-0.2l-6.3-6.4c-0.3-0.3-0.3-0.7,0-1c0.3-0.3,0.7-0.3,1,0l5.6,5.7l5.6-9.9
					c0.2-0.3,0.6-0.5,1-0.3c0.4,0.2,0.5,0.6,0.3,1l-6.1,10.8C26.8,33.5,26.6,33.7,26.3,33.7C26.3,33.7,26.3,33.7,26.3,33.7
					L26.3,33.7L26.3,33.7z"/>
				<path id="Shape_2_" d="M20,27.3c-6,0-10.9-9.3-10.9-15.4C9.1,5.9,14,1.1,20,1.1s10.9,4.8,10.9,10.8C30.9,18,26,27.3,20,27.3
					L20,27.3L20,27.3z M20,2.5c-5.2,0-9.5,4.2-9.5,9.4c0,5.3,4.4,14,9.5,14s9.5-8.7,9.5-14C29.5,6.7,25.2,2.5,20,2.5L20,2.5L20,2.5z
					"/>
				<path id="Shape_3_" d="M25.1,41.9c-0.8,0-1.6,0-2.5,0c-1.7,0-3.6,0-5.3,0C10.6,42,5.2,42,2.6,39.4c-1.1-1-1.6-2.5-1.6-4.3
					c0-4.7,3.9-12.5,10.1-16.9l0.8,1.2c-5.7,4-9.5,11.4-9.5,15.7c0,1.4,0.4,2.5,1.2,3.3c2.2,2.2,7.6,2.1,13.8,2.1c1.7,0,3.6,0,5.3,0
					c6.2,0,11.5,0.1,13.8-2.1c0.8-0.8,1.2-1.9,1.2-3.3c0-4.4-3.8-11.7-9.5-15.7l0.8-1.2c6.3,4.4,10.1,12.2,10.1,16.9
					c0,1.8-0.5,3.2-1.6,4.3C35.1,41.7,30.7,41.9,25.1,41.9L25.1,41.9L25.1,41.9z"/>
			</g>
		</g>
	</g>
</g>
</svg>
